<?xml version="1.0" encoding="UTF-8" standalone="no"?>
<!-- Created with Inkscape (http://www.inkscape.org/) -->

<svg
   xmlns:dc="http://purl.org/dc/elements/1.1/"
   xmlns:cc="http://creativecommons.org/ns#"
   xmlns:rdf="http://www.w3.org/1999/02/22-rdf-syntax-ns#"
   xmlns:svg="http://www.w3.org/2000/svg"
   xmlns="http://www.w3.org/2000/svg"
   xmlns:sodipodi="http://sodipodi.sourceforge.net/DTD/sodipodi-0.dtd"
   xmlns:inkscape="http://www.inkscape.org/namespaces/inkscape"
   width="210mm"
   height="297mm"
   viewBox="0 0 210 297"
   version="1.1"
   id="svg8"
   inkscape:version="0.92.3 (3ce5693, 2018-03-11)"
   sodipodi:docname="tower.svg">
  <defs
     id="defs2" />
  <sodipodi:namedview
     id="base"
     pagecolor="#ffffff"
     bordercolor="#666666"
     borderopacity="1.0"
     inkscape:pageopacity="0.0"
     inkscape:pageshadow="2"
     inkscape:zoom="0.5"
     inkscape:cx="508.49631"
     inkscape:cy="619.78736"
     inkscape:document-units="mm"
     inkscape:current-layer="layer2"
     showgrid="false"
     inkscape:window-width="1366"
     inkscape:window-height="747"
     inkscape:window-x="0"
     inkscape:window-y="21"
     inkscape:window-maximized="1" />
  <metadata
     id="metadata5">
    <rdf:RDF>
      <cc:Work
         rdf:about="">
        <dc:format>image/svg+xml</dc:format>
        <dc:type
           rdf:resource="http://purl.org/dc/dcmitype/StillImage" />
        <dc:title></dc:title>
      </cc:Work>
    </rdf:RDF>
  </metadata>
  <g
     inkscape:groupmode="layer"
     id="layer2"
     inkscape:label="lights"
     style="opacity:0.75">
    <g
       id="g5845"
       transform="matrix(0.48330403,-0.4518673,0.4518673,0.48330403,1.9877442,81.470673)"
       style="fill:#ff8080">
      <rect
         y="76.337502"
         x="53.974998"
         height="102.65833"
         width="102.65833"
         id="rect5831"
         style="fill:#ff8080;fill-opacity:1;stroke:none;stroke-width:1.05833328;stroke-linecap:round;stroke-miterlimit:4;stroke-dasharray:none;stroke-opacity:1" />
      <circle
         r="51.329166"
         cy="77.395828"
         cx="105.30417"
         id="path5838"
         style="fill:#ff8080;fill-opacity:1;stroke:none;stroke-width:1.12194896;stroke-linecap:round;stroke-miterlimit:4;stroke-dasharray:none;stroke-opacity:1" />
      <circle
         style="fill:#ff8080;fill-opacity:1;stroke:none;stroke-width:1.12194896;stroke-linecap:round;stroke-miterlimit:4;stroke-dasharray:none;stroke-opacity:1"
         id="circle5840"
         cx="158.22084"
         cy="127.66666"
         r="51.329166" />
    </g>
  </g>
  <g
     inkscape:label="Layer 1"
     inkscape:groupmode="layer"
     id="layer1">
    <g
       id="g5760"
       transform="matrix(0.03527778,0,0,-0.03527778,-481.89413,311.28882)"
       style="fill:#000000;stroke:none">
      <path
         id="path5740"
         d="m 16534,8511 c -48,-29 -54,-62 -54,-282 v -197 l -102,-92 c -117,-105 -148,-143 -148,-181 0,-14 25,-76 55,-138 55,-111 55,-113 55,-204 0,-240 -73,-1470 -106,-1792 -33,-329 -113,-795 -184,-1076 -11,-44 -14,-48 -58,-59 -75,-20 -112,-41 -127,-71 -37,-71 -3,-147 72,-158 l 40,-6 -25,-88 c -21,-75 -29,-90 -51,-99 -81,-32 -93,-40 -107,-74 -20,-47 -10,-91 29,-127 l 31,-29 -23,-66 c -56,-159 -121,-331 -144,-383 l -24,-56 -79,-13 c -97,-16 -129,-31 -150,-71 -33,-64 18,-159 85,-159 17,0 31,-3 31,-6 0,-16 -111,-219 -179,-328 -193,-307 -453,-586 -687,-735 -150,-95 -152,-97 -160,-137 -9,-47 15,-98 56,-119 26,-14 75,-15 358,-13 l 327,3 55,38 55,37 h 227 228 l 32,29 c 37,33 37,30 23,246 -9,160 7,265 60,372 46,93 91,133 150,133 58,0 97,-33 126,-108 32,-82 38,-321 14,-496 -19,-137 -16,-166 20,-202 l 24,-24 h 409 c 397,0 410,1 435,20 36,28 47,76 47,202 0,132 24,321 51,400 25,74 59,129 95,152 27,18 27,18 46,-5 85,-110 121,-295 98,-516 -11,-111 -10,-124 6,-151 9,-17 28,-35 41,-41 15,-7 105,-11 235,-11 h 211 l 32,-37 33,-38 h 437 437 l 29,33 c 22,24 29,42 29,73 0,57 -9,69 -97,127 -221,143 -532,454 -825,822 -63,80 -132,169 -152,197 -34,48 -36,54 -19,59 44,14 63,29 79,62 13,28 14,42 5,72 -17,57 -38,69 -167,93 l -119,23 -37,54 c -47,69 -165,299 -209,408 -33,82 -33,84 -16,114 37,65 13,145 -52,171 -36,15 -41,21 -65,94 -14,43 -26,84 -26,91 0,7 14,12 38,12 77,1 124,80 90,154 -16,36 -42,50 -125,70 l -72,18 -25,106 c -157,658 -275,1642 -306,2557 l -10,310 50,138 c 51,140 58,174 40,207 -5,10 -59,62 -120,115 l -110,98 v 214 215 l -34,34 c -40,40 -83,45 -132,15 z m 116,-728 51,-48 -35,-94 c -19,-52 -38,-107 -41,-122 -8,-36 12,-607 30,-879 48,-697 133,-1355 245,-1889 21,-102 37,-187 36,-189 -2,-1 -88,18 -193,43 l -189,45 -125,-35 c -68,-19 -129,-35 -135,-35 -8,0 -5,26 8,83 53,226 124,673 152,952 33,322 104,1552 107,1835 1,105 1,106 -42,193 l -44,88 55,49 c 30,27 58,49 62,50 4,0 30,-21 58,-47 z m 132,-3413 c 116,-28 213,-52 216,-54 7,-8 51,-170 47,-175 -2,-2 -114,22 -249,54 l -244,58 -182,-52 c -100,-29 -184,-51 -186,-48 -3,2 5,43 17,90 l 21,85 156,45 c 87,25 165,46 175,46 10,1 113,-22 229,-49 z m 56,-410 c 141,-33 265,-64 275,-68 12,-5 38,-57 73,-147 30,-76 81,-192 114,-257 46,-94 55,-118 42,-118 -9,0 -174,27 -367,60 -192,33 -364,60 -382,60 -18,0 -174,-25 -347,-55 -173,-30 -317,-55 -320,-55 -3,0 4,24 16,53 11,28 52,142 89,252 38,110 75,204 81,208 21,14 411,125 441,126 15,1 143,-26 285,-59 z m 231,-768 455,-78 36,-50 c 20,-27 74,-101 121,-164 216,-294 416,-529 647,-758 l 174,-172 -183,2 -184,3 -70,132 c -203,381 -360,580 -521,659 -70,35 -76,36 -162,32 -70,-3 -100,-10 -144,-31 -61,-30 -130,-98 -171,-167 -59,-102 -101,-282 -113,-492 l -7,-108 h -242 -242 l 5,184 c 5,216 -11,334 -59,437 -45,94 -90,143 -164,180 -62,30 -68,31 -162,27 -89,-4 -105,-8 -168,-40 -147,-76 -264,-199 -495,-524 -72,-101 -151,-208 -176,-239 l -45,-55 h -102 -103 l 156,158 c 244,245 396,461 573,812 59,117 105,197 115,199 53,13 722,129 747,130 17,0 234,-35 484,-77 z m 684,-979 c 35,-60 72,-123 81,-141 l 17,-33 -81,3 -81,3 -3,138 c -1,75 -2,137 -1,137 2,0 32,-48 68,-107 z"
         inkscape:connector-curvature="0" />
      <path
         id="path5742"
         d="m 1850,7683 c -51,-18 -68,-109 -27,-145 13,-12 403,-250 867,-530 593,-357 853,-508 873,-508 18,0 39,11 59,30 27,27 30,36 25,73 -4,30 -13,47 -33,62 -16,11 -186,115 -379,231 -192,116 -568,342 -834,502 -469,282 -506,301 -551,285 z"
         inkscape:connector-curvature="0" />
      <path
         id="path5744"
         d="m 6530,7180 c -465,-280 -853,-519 -862,-531 -21,-24 -23,-86 -5,-110 20,-26 58,-41 87,-35 38,7 1688,1001 1723,1037 37,40 36,81 -2,120 -21,21 -39,29 -63,29 -26,-1 -220,-113 -878,-510 z"
         inkscape:connector-curvature="0" />
      <path
         id="path5746"
         d="m 4531,7669 c -194,-38 -365,-167 -450,-340 -60,-122 -71,-187 -71,-436 v -213 h -75 c -67,0 -79,-3 -100,-25 -18,-17 -25,-35 -25,-62 1,-68 37,-93 134,-93 h 66 v -310 -310 h -66 c -97,0 -133,-25 -134,-93 0,-61 33,-87 114,-87 36,0 67,-4 70,-8 3,-4 -80,-818 -183,-1808 -136,-1306 -185,-1808 -179,-1831 18,-66 -34,-63 1026,-63 h 958 l 27,28 c 18,18 27,39 27,60 0,17 -83,829 -185,1805 -102,975 -185,1783 -185,1795 0,20 5,22 64,22 79,0 93,5 111,41 23,43 18,77 -14,110 -27,27 -35,29 -100,29 h -71 v 310 310 h 71 c 65,0 73,2 100,29 31,31 37,67 17,104 -20,38 -41,46 -114,47 h -71 l -6,233 c -6,253 -14,302 -68,413 -57,116 -174,231 -294,289 -115,56 -273,78 -394,54 z m 299,-215 c 80,-38 176,-125 214,-194 49,-89 56,-136 56,-368 v -212 l -452,2 -453,3 -3,160 c -4,211 9,312 49,394 53,108 181,214 292,242 17,4 77,7 132,6 88,-2 108,-6 165,-33 z M 4370,6190 v -310 h -90 -90 v 303 c 0,167 3,307 7,310 3,4 44,7 90,7 h 83 z m 370,0 v -310 h -90 -90 v 310 310 h 90 90 z m 360,0 v -310 h -90 -90 v 310 310 h 90 90 z m 14,-538 c 4,-26 85,-803 181,-1727 96,-924 177,-1697 180,-1717 l 5,-38 h -480 -480 v 225 c 0,249 -3,264 -62,284 -18,6 -107,11 -205,11 -176,0 -228,-9 -249,-41 -5,-8 -11,-117 -14,-244 l -5,-230 -84,-3 -84,-3 6,48 c 3,26 85,815 182,1753 97,938 178,1710 180,1717 3,8 122,11 464,11 l 459,1 z M 4340,2335 v -165 h -85 -85 v 165 165 h 85 85 z"
         inkscape:connector-curvature="0" />
      <path
         id="path5748"
         d="m 4285,5008 c -44,-25 -44,-31 -45,-331 0,-188 4,-295 11,-309 21,-39 67,-48 254,-48 187,0 233,9 254,48 7,14 11,122 11,310 v 290 l -31,26 -31,26 h -201 c -133,-1 -209,-5 -222,-12 z m 303,-335 2,-163 h -85 -85 v 158 c 0,87 3,162 7,166 4,4 41,5 83,4 l 75,-3 z"
         inkscape:connector-curvature="0" />
      <path
         id="path5750"
         d="m 4805,3606 c -52,-23 -55,-42 -55,-337 0,-286 4,-314 49,-339 12,-6 103,-10 224,-10 h 204 l 26,26 c 36,35 39,69 35,361 l -3,253 -28,27 -27,28 -198,2 c -149,2 -204,0 -227,-11 z m 295,-341 v -166 l -82,3 -83,3 -3,163 -2,162 h 85 85 z"
         inkscape:connector-curvature="0" />
      <path
         id="path5752"
         d="m 2153,6256 c -22,-19 -28,-32 -28,-66 0,-34 6,-47 28,-66 l 28,-24 h 789 788 l 26,31 c 35,41 34,83 -3,120 l -29,29 h -786 -785 z"
         inkscape:connector-curvature="0" />
      <path
         id="path5754"
         d="m 5515,6255 c -19,-18 -25,-35 -25,-65 0,-30 6,-47 25,-65 l 24,-25 h 791 791 l 24,25 c 19,18 25,35 25,65 0,30 -6,47 -25,65 l -24,25 h -791 -791 z"
         inkscape:connector-curvature="0" />
      <path
         id="path5756"
         d="m 2690,5370 c -464,-280 -854,-518 -867,-530 -27,-24 -31,-83 -8,-117 21,-30 79,-40 119,-20 41,20 1643,986 1679,1012 21,15 30,32 34,62 5,37 2,46 -25,73 -20,19 -41,30 -59,30 -20,0 -280,-152 -873,-510 z"
         inkscape:connector-curvature="0" />
      <path
         id="path5758"
         d="m 5695,5868 c -51,-30 -62,-99 -22,-141 12,-14 401,-253 863,-531 645,-388 849,-506 873,-506 23,0 42,9 62,29 36,36 38,80 7,115 -34,37 -1696,1037 -1732,1042 -17,2 -40,-1 -51,-8 z"
         inkscape:connector-curvature="0" />
    </g>
    <rect
       style="fill:none;fill-opacity:1;stroke:none;stroke-width:1.05833328;stroke-linecap:round;stroke-miterlimit:4;stroke-dasharray:none;stroke-opacity:1"
       id="rect5779"
       width="44.601189"
       height="66.523811"
       x="6.8035712"
       y="50.559521" />
    <rect
       style="fill:none;fill-opacity:1;stroke:none;stroke-width:1.05833328;stroke-linecap:round;stroke-miterlimit:4;stroke-dasharray:none;stroke-opacity:1"
       id="rect5781"
       width="141.28749"
       height="7.9375"
       x="34.395832"
       y="263.66251" />
  </g>
</svg>
